<?xml version="1.0" encoding="UTF-8"?>
<!-- Created with Inkscape (http://www.inkscape.org/) -->
<svg width="512" height="512" version="1.1" viewBox="0 0 135.47 135.47" xmlns="http://www.w3.org/2000/svg">
 <g transform="matrix(.95578 0 0 .98655 7.0775 1.2538)" display="none" fill="none" stroke="#333" stroke-linecap="round" stroke-width="3.9688">
  <path d="m9.291 87.165c31.888 22.676 67.403 28.563 110.36 0"/>
  <path d="m115.57 79.965 8.6832 12.474"/>
 </g>
 <g transform="matrix(1.0826 0 0 1.0826 -5.4868 -13.121)">
  <g transform="matrix(.7649 0 0 .7649 -20.586 -37.647)" style="white-space:pre" aria-label="OFP">
   <path d="m72.195 98.782c-15.605 0-26.656 11.424-26.656 26.208 0 15.605 10.901 25.461 25.909 25.461 16.053 0 26.955-9.7813 26.955-26.059 0-15.157-10.677-25.611-26.208-25.611zm14.261 26.581c0 12.096-3.808 21.653-13.589 21.653-12.171 0-15.381-14.635-15.381-23.744 0-12.469 4.928-21.056 14.112-21.056 9.2587 0 14.859 10.379 14.859 23.147z" fill="#f00000"/>
   <path d="m120.58 106.47c0-2.912 0-3.0613 2.464-3.0613h5.824c3.808 0 6.048 0.896 7.3173 2.464 0.74666 0.97067 1.344 2.7627 2.1653 5.824 0.896 0.59733 2.5387 0.52267 2.8373-0.29867-0.14933-5.0027-0.14933-10.379-0.14933-11.648-1.0453 0.14933-5.3013 0.224-10.08 0.224h-15.68c-3.584 0-7.3173-0.07467-10.528-0.224-0.82133 0.29867-0.82133 2.1653-0.14933 2.6133l1.4933 0.224c3.36 0.52267 3.808 1.1947 3.808 8.1387v27.776c0 6.944-0.448 7.4667-3.808 7.9893l-2.464 0.37334c-0.59733 0.448-0.59733 2.1653 0 2.6133 4.48-0.14933 8.2133-0.224 11.648-0.224 3.584 0 7.2427 0.0747 11.872 0.224 0.52267-0.448 0.52267-2.1653 0-2.6133l-2.7627-0.37334c-3.36-0.448-3.808-1.0453-3.808-7.9893v-10.08c0-2.016 0.0747-2.24 2.0907-2.24h5.7493c3.9573 0 4.7787 0.59733 5.5253 4.1813l0.37334 1.792c0.52267 0.672 2.3893 0.59733 2.8373-0.0747-0.14933-2.24-0.224-5.0027-0.224-7.7653 0-2.8373 0.0747-5.6 0.224-7.9893-0.448-0.672-2.3147-0.74667-2.8373-0.0747l-0.37334 1.792c-0.74666 3.6587-1.568 4.1813-5.5253 4.1813h-5.7493c-2.016 0-2.0907-0.224-2.0907-2.24z"/>
   <path d="m150.82 138.5c0 6.944-0.448 7.4667-3.808 8.064l-2.0907 0.37333c-0.82133 0.37334-0.672 2.0907 0.14934 2.5387 4.032-0.14933 7.616-0.224 11.2-0.224s7.2427 0.0747 11.424 0.224c0.82133-0.448 0.82133-2.1653 0-2.5387l-2.3893-0.37333c-3.36-0.52267-3.808-1.12-3.808-8.064v-31.509c0-2.9867 0.14934-3.808 2.912-3.808 6.72 0 9.5573 5.9733 9.5573 11.499s-1.2693 9.9307-7.4667 11.872c-0.52267 0.44801-0.37333 1.6427 0.224 2.016 0.82134 0.0747 1.4933 0.0747 2.3893 0.0747 3.9573 0 16.277-1.792 16.277-14.037 0-7.2427-4.5547-11.2-9.1093-12.917-3.136-1.1947-7.3173-1.9413-13.664-1.9413-6.496 0-12.32 0.29867-17.248 0.672-0.82133 0.52267-0.82133 2.1653-0.14933 2.5387l2.3147 0.29866c3.136 0.37334 3.2853 1.2693 3.2853 8.8107z" fill="#005cf0"/>
  </g>
  <g stroke-linecap="round">
   <path transform="scale(1,-1)" d="m15.534-109.97h103.89v3.9005h-103.89z" fill="#4d4d4d" stroke="#4d4d4d" stroke-width="2.9787" style="paint-order:markers fill stroke"/>
   <path transform="scale(1,-1)" d="m15.379-100.57h77.346v4.2092h-77.346z" fill="#666" stroke="#666" stroke-width="2.6699" style="paint-order:markers fill stroke"/>
   <path d="m15.139 86.572v4.6896h46.676v-4.6896z" fill="#999" stroke="#999" stroke-width="2.1893" style="paint-order:markers fill stroke"/>
  </g>
 </g>
</svg>
